<?xml version="1.0" standalone="no"?>
<!DOCTYPE svg PUBLIC "-//W3C//DTD SVG 20010904//EN"
 "http://www.w3.org/TR/2001/REC-SVG-20010904/DTD/svg10.dtd">
<svg version="1.0" xmlns="http://www.w3.org/2000/svg"
 width="1920.000000pt" height="700.000000pt" viewBox="0 0 1920.000000 700.000000"
 preserveAspectRatio="xMidYMid meet">

<g transform="translate(0.000000,700.000000) scale(0.100000,-0.100000)"
fill="#000000" stroke="none">
<path d="M14125 5552 c-276 -127 -590 -299 -815 -447 -139 -90 -346 -241 -372
-271 -30 -34 -48 -91 -48 -149 0 -54 4 -63 96 -208 144 -226 391 -581 705
-1012 54 -73 412 -528 600 -761 131 -163 141 -172 186 -184 26 -7 52 -13 57
-14 11 -1 58 135 52 151 -3 6 -70 92 -149 190 -324 402 -706 916 -927 1247
-193 290 -410 645 -410 671 0 19 411 274 715 445 166 93 504 262 515 258 16
-6 784 -1006 1169 -1523 57 -77 106 -142 108 -145 2 -2 15 8 29 23 20 22 34
27 69 27 25 0 45 3 45 7 0 3 -17 29 -38 57 -21 28 -67 92 -102 141 -129 182
-820 1096 -998 1320 -100 126 -195 238 -210 247 -15 10 -40 18 -57 18 -16 -1
-115 -40 -220 -88z"/>
<path d="M12734 3567 c-8 -5 -12 -12 -9 -18 4 -5 1 -9 -4 -9 -18 0 -12 -24 9
-43 22 -19 35 -22 25 -7 -3 6 -1 10 4 10 6 0 11 -4 11 -9 0 -5 32 -9 70 -9 44
0 70 4 70 11 0 8 4 7 12 -1 8 -8 18 -6 40 9 15 11 28 25 28 32 0 6 -7 2 -16
-9 -8 -10 -13 -13 -9 -6 4 7 1 20 -7 29 -9 12 -9 15 0 9 6 -4 12 -2 12 3 0 13
-14 14 -133 15 -49 1 -95 -3 -103 -7z m41 -7 c3 -6 -1 -7 -9 -4 -18 7 -21 14
-7 14 6 0 13 -4 16 -10z m15 -52 c0 -6 -6 -6 -16 3 -11 9 -17 10 -23 1 -4 -7
-12 -8 -21 -2 -13 8 -12 10 3 10 9 0 17 5 17 10 0 7 6 7 20 0 11 -6 20 -16 20
-22z m160 23 c0 -6 -4 -13 -10 -16 -5 -3 -10 1 -10 9 0 9 5 16 10 16 6 0 10
-4 10 -9z"/>
<path d="M15841 3535 c-14 -40 -26 -18 125 -225 149 -204 314 -440 314 -448 0
-5 -760 -545 -821 -583 -6 -3 0 -76 15 -180 14 -96 28 -209 32 -252 4 -43 11
-80 15 -83 18 -11 434 289 724 522 212 170 314 262 321 289 3 14 9 25 13 25 4
0 42 -27 85 -60 43 -33 84 -60 91 -60 18 0 77 22 93 34 42 32 72 66 72 81 0 9
-9 35 -21 58 -61 124 -110 268 -129 372 -16 95 -18 99 -92 190 -35 44 -103
135 -151 201 -99 139 -78 128 -281 140 l-109 7 6 -24 c3 -13 12 -49 21 -79 8
-30 17 -69 19 -86 3 -17 10 -40 15 -51 6 -11 11 -28 10 -39 0 -10 3 -28 7 -39
5 -11 -8 1 -28 27 -21 26 -37 51 -37 57 0 5 -3 11 -8 13 -19 8 -73 89 -66 99
4 7 3 9 -3 6 -5 -3 -31 23 -57 58 l-48 65 -57 0 c-56 0 -57 -1 -70 -35z"/>
<path d="M15402 3537 c-24 -25 -28 -37 -13 -37 5 0 19 14 31 30 25 35 13 40
-18 7z"/>
<path d="M13140 3470 c-13 -11 -18 -20 -12 -20 7 0 12 -5 12 -10 0 -7 -7 -7
-21 1 -16 8 -20 8 -14 -1 4 -7 1 -10 -11 -8 -11 2 -23 -6 -29 -19 -7 -13 -15
-20 -18 -17 -7 7 -37 -14 -37 -26 0 -4 10 -11 22 -17 30 -13 63 18 48 47 -7
13 -7 21 2 26 6 4 8 3 4 -4 -3 -6 1 -18 11 -27 14 -14 14 -18 2 -26 -8 -5 -17
-9 -21 -9 -5 0 -8 -7 -8 -16 0 -8 -14 -28 -31 -44 -20 -18 -29 -33 -24 -41 6
-9 3 -11 -8 -6 -9 3 -18 0 -21 -9 -3 -8 -2 -13 2 -11 47 24 84 37 94 31 7 -5
8 -3 3 6 -5 9 -2 10 13 6 12 -4 32 -1 44 6 13 7 26 11 31 10 16 -4 6 8 -25 29
-18 14 -28 17 -24 8 4 -7 1 -5 -8 5 -17 21 -13 36 11 36 13 0 13 2 2 17 -13
15 -12 15 11 3 24 -13 24 -12 10 5 -14 17 -14 18 8 6 15 -8 22 -8 22 -1 0 6 4
9 9 5 5 -3 13 0 16 6 4 5 13 8 21 5 7 -3 16 0 20 6 4 6 3 8 -3 5 -6 -4 -15 -1
-21 6 -10 12 -12 18 -12 37 0 6 -12 8 -27 4 -22 -4 -25 -3 -13 5 8 6 10 11 4
11 -6 0 -21 -9 -34 -20z m55 -20 c-22 -8 -57 -1 -50 9 2 4 19 5 37 3 27 -4 29
-6 13 -12z m-20 -20 c3 -5 -1 -10 -10 -10 -9 0 -13 5 -10 10 3 6 8 10 10 10 2
0 7 -4 10 -10z m35 0 c0 -5 -4 -10 -10 -10 -5 0 -10 5 -10 10 0 6 5 10 10 10
6 0 10 -4 10 -10z m-83 -16 c-3 -3 -12 -4 -19 -1 -8 3 -5 6 6 6 11 1 17 -2 13
-5z m-73 -45 c-8 -14 -21 -11 -21 5 0 8 6 12 14 9 7 -3 10 -9 7 -14z m42 -48
c-9 -14 -26 -14 -26 0 0 5 5 7 12 3 8 -5 9 -1 4 12 -5 14 -4 16 5 7 6 -6 8
-16 5 -22z m38 -13 c-5 -8 -2 -9 9 -5 24 9 21 0 -4 -14 -17 -9 -20 -8 -14 1 6
10 1 11 -21 7 l-29 -6 30 14 c37 18 38 18 29 3z m-66 -23 c-10 -10 -49 -14
-43 -4 4 5 10 7 15 4 5 -3 12 0 15 6 4 5 10 8 13 5 3 -3 3 -8 0 -11z"/>
<path d="M15280 3449 c-62 -37 -70 -48 -58 -75 6 -13 14 -24 18 -24 8 0 87 92
90 105 3 17 -14 15 -50 -6z"/>
<path d="M12609 3446 c-3 -3 -55 -6 -117 -7 -62 -1 -115 -5 -118 -10 -3 -5
-13 -9 -22 -9 -15 0 -15 2 -2 10 13 9 13 10 0 10 -15 -1 -50 -23 -50 -33 0 -3
10 -3 23 -1 16 4 15 2 -6 -8 -28 -13 -28 -14 -10 -30 10 -9 32 -19 48 -23 17
-4 25 -3 18 2 -6 4 107 7 250 6 238 -1 263 0 278 16 14 15 15 21 4 41 -14 26
-19 27 -152 34 -80 5 -94 3 -103 -12 -11 -16 -11 -16 -6 1 4 12 0 17 -13 17
-10 0 -20 -2 -22 -4z m184 -13 c-7 -2 -19 -2 -25 0 -7 3 -2 5 12 5 14 0 19 -2
13 -5z m-298 -12 c17 -7 16 -9 -13 -16 -18 -4 -36 -4 -39 -1 -4 3 5 6 18 7 22
0 23 1 4 9 -26 11 2 12 30 1z m205 -1 c0 -5 -4 -10 -10 -10 -5 0 -10 5 -10 10
0 6 5 10 10 10 6 0 10 -4 10 -10z m-310 -10 c-8 -5 -19 -10 -25 -10 -5 0 -3 5
5 10 8 5 20 10 25 10 6 0 3 -5 -5 -10z m438 3 c-15 -2 -42 -2 -60 0 -18 2 -6
4 27 4 33 0 48 -2 33 -4z m-346 -30 c-49 -2 -80 -8 -77 -13 3 -6 -1 -7 -10 -3
-34 12 10 23 90 21 l80 -2 -83 -3z m401 0 c3 -5 -16 -7 -41 -6 -35 2 -42 1
-27 -6 13 -7 15 -10 5 -10 -8 0 -26 6 -40 14 -24 14 -22 14 37 15 34 0 64 -3
66 -7z m-532 -14 c-14 -5 -28 -6 -32 -2 -4 4 6 9 24 10 30 1 31 1 8 -8z m362
4 c-7 -2 -21 -2 -30 0 -10 3 -4 5 12 5 17 0 24 -2 18 -5z m-200 -10 c-7 -2
-19 -2 -25 0 -7 3 -2 5 12 5 14 0 19 -2 13 -5z"/>
<path d="M15143 3298 c4 -29 7 -65 7 -80 0 -18 5 -28 15 -28 21 0 29 24 15 49
-8 15 -8 27 0 41 12 23 0 54 -26 64 -15 6 -16 0 -11 -46z"/>
<path d="M12785 3309 c-16 -4 -103 -6 -194 -4 -139 5 -168 3 -188 -11 -14 -8
-27 -13 -31 -10 -3 3 0 6 6 6 7 0 12 5 12 11 0 8 -5 7 -16 -2 -10 -8 -13 -21
-9 -38 6 -25 6 -26 -10 -6 -16 20 -16 20 -5 -2 6 -13 18 -23 26 -23 8 0 12 -4
9 -10 -10 -16 62 -12 78 4 8 8 19 11 27 6 10 -6 10 -9 -1 -14 -8 -3 15 -3 51
0 36 3 119 6 184 7 66 1 112 3 103 5 -24 5 -21 21 3 19 11 -1 20 -6 20 -11 0
-6 8 0 17 13 16 23 15 25 -13 48 -16 12 -31 23 -34 22 -3 0 -18 -5 -35 -10z
m80 -30 c11 -17 -1 -21 -15 -4 -8 9 -8 15 -2 15 6 0 14 -5 17 -11z m-336 -3
c-2 -2 -20 -6 -39 -10 -25 -4 -31 -3 -20 4 14 9 69 15 59 6z m74 -3 c-7 -2
-21 -2 -30 0 -10 3 -4 5 12 5 17 0 24 -2 18 -5z m232 -3 c3 -5 1 -10 -4 -10
-6 0 -11 5 -11 10 0 6 2 10 4 10 3 0 8 -4 11 -10z m-127 -7 c-10 -2 -26 -2
-35 0 -10 3 -2 5 17 5 19 0 27 -2 18 -5z m97 -3 c-3 -5 -12 -10 -18 -10 -7 0
-6 4 3 10 19 12 23 12 15 0z m-252 -7 c-7 -2 -19 -2 -25 0 -7 3 -2 5 12 5 14
0 19 -2 13 -5z m187 -13 c0 -5 -4 -10 -10 -10 -5 0 -10 5 -10 10 0 6 5 10 10
10 6 0 10 -4 10 -10z m-290 -10 c-8 -5 -19 -10 -25 -10 -5 0 -3 5 5 10 8 5 20
10 25 10 6 0 3 -5 -5 -10z m137 4 c-3 -3 -12 -4 -19 -1 -8 3 -5 6 6 6 11 1 17
-2 13 -5z m86 -1 c-7 -2 -19 -2 -25 0 -7 3 -2 5 12 5 14 0 19 -2 13 -5z"/>
<path d="M16191 3294 c0 -11 3 -14 6 -6 3 7 2 16 -1 19 -3 4 -6 -2 -5 -13z"/>
<path d="M15713 3219 c-24 -17 -43 -36 -43 -43 0 -14 67 -106 77 -106 3 0 27
14 54 32 31 20 49 39 49 51 0 26 -58 97 -78 97 -10 -1 -36 -14 -59 -31z"/>
<path d="M15465 3172 c-73 -20 -72 -19 -53 -38 9 -10 23 -13 34 -10 17 6 97
67 84 64 -3 0 -32 -8 -65 -16z"/>
<path d="M12440 3156 c0 -3 7 -12 16 -20 8 -9 11 -16 6 -16 -5 0 -15 7 -22 15
-15 18 -37 4 -35 -22 4 -51 60 -79 84 -41 9 15 8 18 -10 18 -11 0 -18 4 -14 9
3 6 14 8 25 6 29 -6 25 10 -9 34 -28 20 -41 26 -41 17z m5 -56 c-3 -5 -14 -10
-23 -10 -15 0 -15 2 -2 10 20 13 33 13 25 0z m5 -30 c0 -5 -2 -10 -4 -10 -3 0
-8 5 -11 10 -3 6 -1 10 4 10 6 0 11 -4 11 -10z"/>
<path d="M12760 3145 c-9 -10 -9 -15 -1 -15 6 0 11 5 11 10 0 6 6 10 13 10 6
-1 1 -10 -12 -21 -21 -17 -22 -22 -10 -30 12 -7 12 -9 -1 -9 -20 -1 19 -23 43
-25 19 -2 42 39 31 56 -3 5 0 9 7 9 8 0 8 4 -1 15 -7 8 -18 15 -24 15 -6 0 -5
-4 3 -9 8 -5 9 -11 3 -15 -5 -3 -15 1 -22 9 -16 19 -24 19 -40 0z m50 -35 c12
-7 10 -9 -8 -7 -12 0 -22 5 -22 9 0 11 12 10 30 -2z m-20 -30 c0 -5 -2 -10 -4
-10 -3 0 -8 5 -11 10 -3 6 -1 10 4 10 6 0 11 -4 11 -10z"/>
<path d="M15218 3137 c-16 -13 -28 -31 -28 -40 0 -24 59 -97 79 -97 9 0 36 17
60 38 l44 38 -18 32 c-15 25 -26 32 -52 32 -17 0 -35 5 -38 10 -9 14 -16 12
-47 -13z"/>
<path d="M15548 3102 c-20 -15 -40 -33 -43 -41 -6 -15 41 -88 67 -105 20 -12
108 50 108 76 0 26 -59 98 -79 97 -9 0 -33 -13 -53 -27z"/>
<path d="M15378 2975 c-27 -20 -48 -39 -48 -44 0 -16 65 -96 81 -99 8 -1 36
13 62 33 43 33 46 38 36 58 -21 39 -61 87 -73 87 -6 0 -32 -16 -58 -35z"/>
<path d="M15630 2903 c-37 -14 -263 -189 -271 -210 -18 -47 18 -93 72 -93 21
0 40 4 44 9 3 6 54 43 113 84 119 82 127 90 137 128 11 44 -52 98 -95 82z"/>
<path d="M15240 2868 c0 -19 43 -138 49 -138 8 0 61 49 61 56 0 3 -14 26 -32
50 -22 30 -39 44 -55 44 -13 0 -23 -6 -23 -12z"/>
<path d="M13915 2218 c2 -18 6 -82 9 -143 4 -60 11 -126 15 -146 9 -38 41 -93
41 -70 0 7 9 26 21 42 18 26 26 29 64 27 24 -2 42 -5 40 -7 -3 -2 24 -22 58
-44 34 -22 64 -42 67 -46 3 -3 16 -15 30 -26 l25 -20 -20 25 c-11 13 -24 30
-30 37 -5 6 -34 43 -64 82 -30 39 -57 69 -59 66 -3 -2 0 -11 6 -18 7 -8 9 -17
5 -20 -3 -4 0 -7 7 -7 7 0 11 -2 8 -5 -15 -15 -35 9 -33 39 3 26 -5 42 -41 82
-24 27 -44 53 -44 57 0 5 -5 5 -10 2 -6 -4 -9 -3 -8 2 2 4 -7 25 -20 45 -16
26 -28 35 -40 32 -14 -5 -14 -4 -3 4 12 9 12 13 2 26 -20 24 -28 19 -26 -16z
m246 -320 c-10 -11 -11 -10 -5 5 5 14 2 16 -12 11 -16 -5 -16 -4 -4 5 20 14
39 -4 21 -21z m34 -18 c3 -6 -1 -7 -9 -4 -18 7 -21 14 -7 14 6 0 13 -4 16 -10z"/>
<path d="M16910 2179 c0 -6 -14 -9 -32 -8 -38 3 -128 -21 -128 -34 0 -5 7 -6
16 -3 9 3 12 2 9 -5 -4 -5 -12 -8 -18 -6 -7 2 -21 0 -32 -5 -20 -9 -20 -9 -1
6 11 9 15 16 9 16 -7 0 -15 -6 -19 -12 -11 -18 -12 -48 -2 -48 4 0 8 -5 8 -10
0 -6 -8 -5 -20 2 -14 9 -16 14 -7 20 9 6 9 8 0 8 -14 0 -43 -27 -43 -41 0 -12
17 -12 23 1 3 6 4 5 3 -2 -2 -7 -13 -12 -24 -11 -22 3 -38 -27 -27 -49 4 -7
-1 -4 -11 7 l-17 20 8 -20 c14 -37 17 -95 6 -95 -7 0 -9 11 -6 28 5 26 5 26
-5 3 -6 -13 -13 -21 -17 -18 -3 4 2 18 11 31 8 14 12 27 7 31 -13 7 -33 -58
-25 -78 3 -10 2 -17 -2 -17 -8 0 -9 -24 -5 -159 1 -40 2 -43 14 -26 18 24 37
11 36 -23 l-1 -27 -8 30 c-4 17 -8 22 -9 13 0 -10 -6 -18 -13 -18 -7 0 -6 -6
3 -17 8 -10 21 -30 29 -45 13 -28 30 -37 30 -17 0 5 5 7 11 3 8 -4 7 -9 -2
-15 -11 -6 -7 -15 15 -38 16 -17 31 -29 34 -26 2 2 22 -7 44 -21 22 -14 37
-20 32 -13 -5 9 -2 10 12 4 10 -4 29 -10 41 -12 13 -3 21 -8 19 -12 -3 -4 30
-6 71 -4 48 2 80 8 85 15 4 7 8 9 8 3 0 -5 4 -4 9 3 4 7 22 14 40 14 30 1 31
2 14 20 -17 19 -17 19 10 7 25 -12 30 -10 62 21 19 19 35 40 35 48 0 7 4 11 9
7 11 -6 20 6 26 32 2 10 6 27 10 38 4 14 2 12 -9 -5 -8 -14 -15 -20 -16 -14 0
5 7 19 15 30 13 16 16 17 25 4 8 -13 10 -12 11 5 1 11 1 24 0 29 -1 4 4 14 10
22 6 8 8 14 3 14 -5 0 -7 29 -6 65 3 43 0 65 -7 65 -7 0 -9 10 -5 25 3 14 1
32 -6 40 -6 8 -8 20 -4 27 6 10 4 10 -9 -1 -9 -7 -14 -17 -11 -22 3 -5 0 -9
-6 -9 -8 0 -9 7 -5 18 13 32 12 46 -5 62 -12 11 -12 13 0 5 13 -9 13 -8 1 7
-7 10 -18 14 -25 10 -6 -4 -22 -7 -34 -7 -22 -1 -22 0 -6 12 10 7 15 16 11 19
-4 4 -15 1 -24 -7 -14 -10 -16 -10 -6 0 6 7 9 21 5 29 -4 12 1 10 17 -5 13
-12 20 -26 16 -32 -3 -6 -1 -11 4 -11 19 0 12 26 -14 50 -14 13 -25 20 -25 16
0 -5 -6 -4 -12 1 -14 11 -68 27 -81 24 -5 -1 -6 3 -2 8 3 6 13 7 23 4 9 -3 14
-3 11 1 -10 11 -60 20 -101 18 -21 -1 -38 3 -38 8 0 6 -4 10 -10 10 -5 0 -10
-5 -10 -11z m95 -19 c8 -13 -5 -13 -25 0 -13 8 -13 10 2 10 9 0 20 -4 23 -10z
m-138 -6 c-3 -3 -12 -4 -19 -1 -8 3 -5 6 6 6 11 1 17 -2 13 -5z m-43 -13 c3
-5 -2 -11 -12 -13 -11 -3 -19 0 -19 8 0 16 23 19 31 5z m216 -13 c18 -5 13 -6
-15 -2 -22 3 -47 10 -55 15 -16 10 24 3 70 -13z m-131 -7 c10 -7 7 -9 -12 -8
-15 1 -27 5 -27 10 0 10 22 9 39 -2z m51 -16 c0 -11 -42 -25 -53 -18 -8 5 -2
10 18 14 17 4 31 7 33 8 1 0 2 -1 2 -4z m-87 -12 c-7 -2 -19 -2 -25 0 -7 3 -2
5 12 5 14 0 19 -2 13 -5z m-53 -18 c-7 -9 -15 -13 -19 -10 -3 3 1 10 9 15 21
14 24 12 10 -5z m50 -5 c0 -5 -7 -10 -15 -10 -8 0 -15 -7 -15 -15 0 -8 -4 -15
-10 -15 -5 0 -10 -4 -10 -8 0 -5 7 -9 14 -9 8 0 15 3 14 6 -3 32 33 51 58 30
8 -6 18 -9 21 -5 4 4 2 11 -6 15 -9 6 -5 10 13 13 14 3 26 1 26 -3 0 -5 -5 -9
-11 -9 -6 0 -3 -7 5 -16 9 -8 14 -20 10 -25 -3 -6 0 -16 6 -24 7 -8 10 -24 7
-35 -3 -11 0 -23 5 -27 7 -3 8 -1 4 5 -4 7 -2 12 4 12 6 0 13 -7 16 -15 4 -8
12 -15 18 -15 12 0 16 -12 17 -52 0 -10 9 -23 20 -28 10 -6 18 -18 18 -28 -1
-16 -2 -16 -6 1 -2 9 -9 17 -14 17 -11 0 -2 -67 13 -90 6 -10 8 -5 4 18 -7 39
1 42 15 5 8 -22 7 -30 -7 -40 -14 -10 -15 -17 -5 -44 6 -17 8 -36 4 -42 -3 -5
-1 -7 4 -4 12 7 36 -16 27 -26 -8 -7 14 -47 26 -47 6 0 10 7 10 15 0 8 5 15
10 15 18 0 11 -18 -16 -39 -21 -16 -30 -18 -49 -9 -13 6 -27 18 -30 26 -5 13
-2 12 14 -2 11 -10 25 -15 32 -11 8 6 4 12 -12 22 -18 11 -19 13 -4 8 15 -4
17 -3 9 5 -8 8 -18 8 -37 -1 -15 -7 -25 -15 -23 -18 6 -9 -87 -7 -102 2 -7 5
-20 6 -28 3 -9 -3 -12 -1 -9 4 3 6 2 10 -4 10 -5 0 -18 3 -28 6 -15 5 -16 4
-3 -6 13 -10 12 -11 -3 -6 -10 3 -24 6 -30 6 -8 0 -7 4 2 9 10 6 0 12 -33 19
-26 5 -55 9 -64 7 -9 -1 -11 0 -4 2 6 3 12 12 12 21 0 15 -2 15 -10 2 -8 -13
-10 -12 -10 3 0 9 4 17 8 17 4 0 6 15 4 34 -2 18 1 37 7 40 6 4 11 15 11 24 0
15 -2 15 -10 2 -7 -11 -10 -5 -12 25 -2 50 1 97 7 104 12 11 15 -8 6 -33 -6
-15 -7 -35 -2 -48 7 -18 10 -5 16 54 4 42 4 82 0 89 -5 8 -4 10 3 5 7 -4 12
-2 12 5 0 6 -8 9 -18 7 -10 -3 -23 0 -29 7 -8 9 0 11 33 9 24 -1 48 -5 53 -8
5 -4 12 -2 16 4 3 5 -1 10 -9 10 -9 0 -16 8 -17 18 0 10 -3 12 -6 4 -2 -6 -9
-10 -14 -6 -5 3 -9 0 -9 -5 0 -6 -5 -11 -10 -11 -6 0 -6 7 2 19 6 10 18 18 26
17 8 -2 25 8 38 21 25 25 34 28 34 13z m147 -100 c9 0 13 -3 10 -7 -4 -3 -2
-12 4 -20 16 -18 1 -17 -17 2 -20 19 -36 74 -26 89 4 6 8 -6 10 -26 2 -27 8
-38 19 -38z m13 16 c-7 -7 -10 1 -9 25 0 32 1 33 10 10 6 -16 6 -28 -1 -35z
m177 2 c-3 -8 -6 -5 -6 6 -1 11 2 17 5 13 3 -3 4 -12 1 -19z m-570 -70 c-3 -7
-5 -2 -5 12 0 14 2 19 5 13 2 -7 2 -19 0 -25z m110 0 c-3 -7 -5 -2 -5 12 0 14
2 19 5 13 2 -7 2 -19 0 -25z m495 10 c-7 -7 -12 -8 -12 -2 0 14 12 26 19 19 2
-3 -1 -11 -7 -17z m-35 -35 c-3 -10 -5 -2 -5 17 0 19 2 27 5 18 2 -10 2 -26 0
-35z m27 2 c3 -8 1 -15 -4 -15 -6 0 -10 7 -10 15 0 8 2 15 4 15 2 0 6 -7 10
-15z m-507 -17 c-3 -8 -6 -5 -6 6 -1 11 2 17 5 13 3 -3 4 -12 1 -19z m377 -68
c4 -25 3 -31 -4 -20 -5 8 -10 26 -10 39 0 32 6 24 14 -19z m13 18 c-3 -8 -6
-5 -6 6 -1 11 2 17 5 13 3 -3 4 -12 1 -19z m-390 -45 c-3 -10 -5 -4 -5 12 0
17 2 24 5 18 2 -7 2 -21 0 -30z m523 13 c0 -3 -4 -8 -10 -11 -5 -3 -10 -1 -10
4 0 6 5 11 10 11 6 0 10 -2 10 -4z m5 -84 c-3 -3 -11 0 -18 7 -9 10 -8 11 6 5
10 -3 15 -9 12 -12z m-44 -19 c-12 -20 -14 -14 -5 12 4 9 9 14 11 11 3 -2 0
-13 -6 -23z m-79 -54 c10 -7 10 -9 1 -9 -15 0 -33 32 -32 57 0 10 4 6 9 -11 5
-16 15 -33 22 -37z m-496 16 c-6 -23 -3 -25 24 -25 16 0 30 -4 30 -8 0 -12
-54 -9 -62 4 -7 11 0 54 9 54 3 0 2 -11 -1 -25z m537 -35 c3 -11 1 -20 -4 -20
-5 0 -9 9 -9 20 0 11 2 20 4 20 2 0 6 -9 9 -20z m37 4 c0 -8 -4 -12 -10 -9 -5
3 -10 10 -10 16 0 5 5 9 10 9 6 0 10 -7 10 -16z m-406 -22 c10 -16 -9 -28 -34
-21 -24 7 -24 7 5 8 23 1 27 3 15 11 -9 6 -10 10 -3 10 6 0 14 -4 17 -8z m-87
-37 c6 -14 7 -23 2 -19 -5 3 -9 0 -9 -6 0 -6 -5 -8 -12 -4 -9 6 -9 9 0 12 8 2
9 9 2 23 -6 10 -7 19 -3 19 4 0 13 -11 20 -25z m118 5 c-3 -5 -10 -10 -16 -10
-5 0 -9 5 -9 10 0 6 7 10 16 10 8 0 12 -4 9 -10z m-65 -10 c-8 -5 -19 -10 -25
-10 -5 0 -3 5 5 10 8 5 20 10 25 10 6 0 3 -5 -5 -10z m10 -24 c-14 -8 -29 -11
-35 -8 -5 3 1 9 15 13 40 11 47 9 20 -5z"/>
<path d="M16881 2011 c-12 -7 -12 -13 -3 -24 7 -7 9 -16 6 -19 -3 -3 9 -5 25
-4 17 0 31 5 31 9 0 5 -7 6 -16 3 -10 -4 -14 -2 -11 6 2 7 10 12 16 10 7 -1 9
2 6 8 -5 8 -13 6 -24 -4 -10 -9 -21 -13 -24 -10 -4 4 1 13 11 20 19 15 5 19
-17 5z"/>
<path d="M17031 1734 c0 -11 3 -14 6 -6 3 7 2 16 -1 19 -3 4 -6 -2 -5 -13z"/>
<path d="M17034 1675 c-4 -8 -1 -22 6 -30 12 -15 4 -21 -23 -16 -5 1 -6 -3 -3
-8 4 -5 0 -12 -6 -14 -8 -3 -6 -6 5 -6 9 -1 17 4 17 10 0 5 5 7 10 4 10 -6 15
10 10 30 -2 6 -2 18 -2 28 1 21 -7 22 -14 2z"/>
<path d="M13407 1619 c7 -7 15 -10 18 -7 3 3 -2 9 -12 12 -14 6 -15 5 -6 -5z"/>
<path d="M13490 1607 c0 -2 15 -14 33 -27 20 -15 27 -17 18 -6 -13 16 -51 41
-51 33z"/>
<path d="M13254 1558 l-19 -23 23 19 c21 18 27 26 19 26 -2 0 -12 -10 -23 -22z"/>
<path d="M13572 1534 c-7 -8 -9 -14 -5 -14 4 0 -3 -6 -17 -13 -14 -7 -32 -26
-41 -42 -8 -17 -21 -31 -28 -33 -15 -3 -61 -51 -61 -65 0 -5 -7 -6 -16 -3 -14
5 -15 4 -4 -9 8 -9 8 -15 2 -15 -6 0 -17 12 -24 26 -7 15 -16 25 -20 23 -4 -2
-14 5 -22 16 -13 17 -15 17 -16 4 0 -16 26 -34 42 -31 4 1 5 -5 2 -12 -3 -8 4
-19 16 -26 18 -9 26 -6 55 21 19 18 32 36 30 39 -2 4 7 12 20 18 14 7 25 19
25 27 0 10 5 13 13 9 6 -4 9 -4 5 1 -8 8 12 32 48 55 13 9 20 21 16 27 -5 7
-11 7 -20 -3z m-112 -138 c0 -2 -8 -10 -17 -17 -16 -13 -17 -12 -4 4 13 16 21
21 21 13z"/>
<path d="M13622 1430 c0 -14 2 -19 5 -12 2 6 2 18 0 25 -3 6 -5 1 -5 -13z"/>
<path d="M13586 1417 c3 -10 9 -15 12 -12 3 3 0 11 -7 18 -10 9 -11 8 -5 -6z"/>
<path d="M13070 1400 c0 -5 5 -10 10 -10 6 0 10 5 10 10 0 6 -4 10 -10 10 -5
0 -10 -4 -10 -10z"/>
<path d="M13622 1360 c0 -14 2 -19 5 -12 2 6 2 18 0 25 -3 6 -5 1 -5 -13z"/>
<path d="M13566 1315 c-9 -26 -7 -32 5 -12 6 10 9 21 6 23 -2 3 -7 -2 -11 -11z"/>
<path d="M13583 1268 c-15 -20 -25 -38 -20 -38 3 0 12 11 21 25 17 26 16 35
-1 13z"/>
<path d="M15495 1269 c-4 -5 -26 -25 -49 -42 -24 -18 -78 -58 -121 -91 -43
-32 -111 -76 -150 -97 -69 -37 -79 -40 -206 -49 -73 -6 -135 -13 -138 -15 -2
-3 5 -5 17 -5 25 0 353 -65 402 -80 66 -20 67 -20 62 6 -3 18 17 56 76 146 76
117 116 185 117 200 0 3 3 10 8 14 4 4 7 11 7 16 0 12 -18 10 -25 -3z"/>
<path d="M13310 1236 c0 -2 7 -7 16 -10 8 -3 12 -2 9 4 -6 10 -25 14 -25 6z"/>
<path d="M13455 1220 c-3 -6 1 -7 9 -4 18 7 21 14 7 14 -6 0 -13 -4 -16 -10z"/>
</g>
</svg>
